<svg width="416" height="397" viewBox="0 0 416 397" fill="none" xmlns="http://www.w3.org/2000/svg">
<g clip-path="url(#clip0_80_2)">
<path opacity="0.1" d="M71.0986 67.0905C68.8696 70.3672 68.0114 74.9742 67.0515 79.3054C59.3234 114.211 40.2797 142.286 18.5922 162.341C9.40794 170.84 -1.77341 182.237 0.235896 197.458C1.31783 205.637 6.06452 211.658 9.59097 218.32C16.9896 232.269 19.3894 251.23 15.8629 267.928C11.8525 286.928 0.642641 304.657 4.11215 323.868C6.25162 335.694 13.516 344.11 20.4998 351.343C31.3951 362.62 42.6374 373.184 54.2269 383.036C61.9957 389.638 70.2607 396.064 79.3148 396.901C87.2869 397.64 95.0964 393.97 102.666 390.348C109.279 387.18 116.06 383.883 121.4 377.537C124.886 373.393 127.664 368.047 131.536 364.657C140.631 356.694 152.313 361.74 162.742 365.15C187.35 373.152 213.686 370.23 237.102 356.901C273.022 336.453 300.4 293.511 335.534 270.471C350.64 260.562 367.073 254.413 381.061 241.651C388.941 234.385 395.714 225.507 401.073 215.418C411.648 195.654 417.367 170.456 415.715 145.79C414.064 121.124 404.81 97.3542 390.278 83.4295C374.72 68.5244 355.07 65.7404 337.368 56.7924C319.089 47.5487 302.828 31.663 284.724 21.7443C270.071 13.7444 254.126 9.82052 238.058 10.2605C221.99 10.7004 206.208 15.4931 191.869 24.2868C172.166 36.3341 152.195 64.5037 130.251 66.6224C114.62 68.1154 83.3049 49.1452 71.0986 67.0905Z" fill="#6C63FF"/>
<path d="M132.862 174.28C132.862 174.28 113.823 163.646 107.307 145.43C104.614 137.768 99.9431 131.371 93.9941 127.199C91.157 125.245 88.178 123.611 85.0946 122.316" stroke="#535461" stroke-width="2" stroke-miterlimit="10"/>
<path d="M80.9255 110.87C82.7802 112.841 85.2248 122.602 85.2248 122.602C85.2248 122.602 76.9069 120.976 75.0562 119.01C74.5648 118.562 74.155 117.996 73.8523 117.347C73.5496 116.698 73.3605 115.981 73.2969 115.24C73.2333 114.499 73.2965 113.75 73.4826 113.04C73.6687 112.33 73.9737 111.674 74.3784 111.113C74.7832 110.552 75.2791 110.098 75.8352 109.779C76.3913 109.461 76.9956 109.285 77.6103 109.262C78.2251 109.239 78.8372 109.37 79.4083 109.647C79.9793 109.924 80.4972 110.34 80.9296 110.87H80.9255Z" fill="#6C63FF"/>
<path d="M96.0604 115.024C96.7356 117.896 94.4049 127.707 94.4049 127.707C94.4049 127.707 88.1533 120.863 87.4903 117.99C87.2773 117.289 87.1859 116.543 87.222 115.798C87.2582 115.053 87.421 114.325 87.7002 113.659C87.9795 112.994 88.3692 112.406 88.8449 111.931C89.3206 111.457 89.8721 111.107 90.4648 110.902C91.0575 110.698 91.6785 110.645 92.2892 110.745C92.8998 110.845 93.4867 111.097 94.0132 111.485C94.5397 111.873 94.9943 112.388 95.3487 112.999C95.7031 113.609 95.9495 114.302 96.0726 115.033L96.0604 115.024Z" fill="#6C63FF"/>
<path d="M113.416 133.92C112.822 136.812 106.721 143.853 106.721 143.853C106.721 143.853 104.175 134.122 104.789 131.23C105.145 129.925 105.896 128.832 106.892 128.173C107.887 127.514 109.052 127.337 110.151 127.679C111.249 128.021 112.2 128.856 112.81 130.014C113.42 131.173 113.644 132.569 113.436 133.92H113.416Z" fill="#6C63FF"/>
<path d="M123.89 151.796C123.69 154.753 118.659 162.962 118.659 162.962C118.659 162.962 114.791 153.89 114.998 150.914C115.171 149.56 115.761 148.336 116.649 147.488C117.537 146.639 118.658 146.23 119.785 146.341C120.912 146.453 121.962 147.078 122.725 148.09C123.487 149.102 123.905 150.426 123.894 151.796H123.89Z" fill="#6C63FF"/>
<path d="M88.6008 136.635C91.0412 136.394 97.8175 130.298 97.8175 130.298C97.8175 130.298 90.3294 125.617 87.8727 125.864C87.2581 125.871 86.6513 126.032 86.0902 126.336C85.5291 126.639 85.0256 127.08 84.6113 127.63C84.197 128.18 83.8807 128.828 83.6821 129.532C83.4835 130.237 83.4069 130.984 83.4571 131.726C83.5072 132.468 83.683 133.189 83.9735 133.846C84.2641 134.502 84.6631 135.078 85.1457 135.539C85.6283 136.001 86.1842 136.336 86.7786 136.526C87.3731 136.715 87.9934 136.754 88.6008 136.64V136.635Z" fill="#6C63FF"/>
<path d="M101.067 157.354C103.353 156.231 108.295 147.968 108.295 147.968C108.295 147.968 99.9936 146.214 97.72 147.337C96.7074 147.944 95.9218 148.992 95.5207 150.271C95.1196 151.55 95.1327 152.966 95.5575 154.234C95.9822 155.502 96.7871 156.528 97.8106 157.107C98.8341 157.686 100 157.774 101.076 157.354H101.067Z" fill="#6C63FF"/>
<path d="M115.466 175.477C117.874 174.836 123.902 167.702 123.902 167.702C123.902 167.702 115.966 164.253 113.558 164.913C112.47 165.298 111.542 166.169 110.964 167.35C110.385 168.531 110.198 169.935 110.441 171.277C110.684 172.619 111.338 173.799 112.272 174.578C113.205 175.358 114.348 175.679 115.47 175.477H115.466Z" fill="#6C63FF"/>
<path opacity="0.1" d="M80.9255 110.87C82.7802 112.841 85.2248 122.602 85.2248 122.602C85.2248 122.602 76.9069 120.976 75.0562 119.01C74.5648 118.562 74.155 117.996 73.8523 117.347C73.5496 116.698 73.3605 115.981 73.2969 115.24C73.2333 114.499 73.2965 113.75 73.4826 113.04C73.6687 112.33 73.9737 111.674 74.3784 111.113C74.7832 110.552 75.2791 110.098 75.8352 109.779C76.3913 109.461 76.9956 109.285 77.6103 109.262C78.2251 109.239 78.8372 109.37 79.4083 109.647C79.9793 109.924 80.4972 110.34 80.9296 110.87H80.9255Z" fill="#6C63FF"/>
<path opacity="0.1" d="M96.0604 115.024C96.7356 117.896 94.4049 127.707 94.4049 127.707C94.4049 127.707 88.1533 120.863 87.4903 117.99C87.2773 117.289 87.1859 116.543 87.222 115.798C87.2582 115.053 87.421 114.325 87.7002 113.659C87.9795 112.994 88.3692 112.406 88.8449 111.931C89.3206 111.457 89.8721 111.107 90.4648 110.902C91.0575 110.698 91.6785 110.645 92.2892 110.745C92.8998 110.845 93.4867 111.097 94.0132 111.485C94.5397 111.873 94.9943 112.388 95.3487 112.999C95.7031 113.609 95.9495 114.302 96.0726 115.033L96.0604 115.024Z" fill="#6C63FF"/>
<path opacity="0.1" d="M113.416 133.92C112.822 136.812 106.721 143.853 106.721 143.853C106.721 143.853 104.175 134.122 104.789 131.23C105.145 129.925 105.896 128.832 106.892 128.173C107.887 127.514 109.052 127.337 110.151 127.679C111.249 128.021 112.2 128.856 112.81 130.014C113.42 131.173 113.644 132.569 113.436 133.92H113.416Z" fill="#6C63FF"/>
<path opacity="0.1" d="M123.89 151.796C123.69 154.753 118.659 162.962 118.659 162.962C118.659 162.962 114.791 153.89 114.998 150.914C115.171 149.56 115.761 148.336 116.649 147.488C117.537 146.639 118.658 146.23 119.785 146.341C120.912 146.453 121.962 147.078 122.725 148.09C123.487 149.102 123.905 150.426 123.894 151.796H123.89Z" fill="#6C63FF"/>
<path opacity="0.1" d="M88.6008 136.635C91.0412 136.394 97.8175 130.298 97.8175 130.298C97.8175 130.298 90.3294 125.617 87.8727 125.864C87.2581 125.871 86.6513 126.032 86.0902 126.336C85.5291 126.639 85.0256 127.08 84.6113 127.63C84.197 128.18 83.8807 128.828 83.6821 129.532C83.4835 130.237 83.4069 130.984 83.4571 131.726C83.5072 132.468 83.683 133.189 83.9735 133.846C84.2641 134.502 84.6631 135.078 85.1457 135.539C85.6283 136.001 86.1842 136.336 86.7786 136.526C87.3731 136.715 87.9934 136.754 88.6008 136.64V136.635Z" fill="#6C63FF"/>
<path opacity="0.1" d="M101.067 157.354C103.353 156.231 108.295 147.968 108.295 147.968C108.295 147.968 99.9936 146.214 97.72 147.337C96.7074 147.944 95.9218 148.992 95.5207 150.271C95.1196 151.55 95.1327 152.966 95.5575 154.234C95.9822 155.502 96.7871 156.528 97.8106 157.107C98.8341 157.686 100 157.774 101.076 157.354H101.067Z" fill="#6C63FF"/>
<path opacity="0.1" d="M115.466 175.477C117.874 174.836 123.902 167.702 123.902 167.702C123.902 167.702 115.966 164.253 113.558 164.913C112.47 165.298 111.542 166.169 110.964 167.35C110.385 168.531 110.198 169.935 110.441 171.277C110.684 172.619 111.338 173.799 112.272 174.578C113.205 175.358 114.348 175.679 115.47 175.477H115.466Z" fill="#6C63FF"/>
<path d="M291.699 271.028C291.699 271.028 298.818 287.953 293.017 297.212C287.217 306.47 293.546 331.703 293.546 331.703" stroke="#6C63FF" stroke-miterlimit="10"/>
<path d="M293.823 265.756C293.823 269.017 291.846 271.668 291.846 271.668C291.846 271.668 289.869 269.022 289.869 265.756C289.869 262.489 291.846 259.843 291.846 259.843C291.846 259.843 293.823 262.494 293.823 265.756Z" fill="#6C63FF"/>
<path d="M295.389 271.028C295.389 271.028 288.271 287.953 294.071 297.212C299.871 306.47 293.542 331.703 293.542 331.703" stroke="#6C63FF" stroke-miterlimit="10"/>
<path d="M293.282 265.756C293.282 269.017 295.259 271.668 295.259 271.668C295.259 271.668 297.235 269.022 297.235 265.756C297.235 262.489 295.259 259.843 295.259 259.843C295.259 259.843 293.282 262.494 293.282 265.756Z" fill="#6C63FF"/>
<path opacity="0.1" d="M293.282 265.756C293.282 269.017 295.259 271.668 295.259 271.668C295.259 271.668 297.235 269.022 297.235 265.756C297.235 262.489 295.259 259.843 295.259 259.843C295.259 259.843 293.282 262.494 293.282 265.756Z" fill="black"/>
<path d="M298.297 271.028C298.297 271.028 305.415 287.953 299.615 297.212C293.815 306.47 300.143 331.703 300.143 331.703" stroke="#6C63FF" stroke-miterlimit="10"/>
<path d="M300.4 265.756C300.4 269.017 298.423 271.668 298.423 271.668C298.423 271.668 296.446 269.022 296.446 265.756C296.446 262.489 298.423 259.843 298.423 259.843C298.423 259.843 300.4 262.494 300.4 265.756Z" fill="#6C63FF"/>
<path d="M299.289 279.306C297.422 281.656 294.482 281.902 294.482 281.902C294.482 281.902 294.571 278.335 296.438 275.99C298.305 273.644 301.246 273.393 301.246 273.393C301.246 273.393 301.144 276.965 299.289 279.306Z" fill="#6C63FF"/>
<path d="M299.476 290.993C297.609 293.344 294.669 293.59 294.669 293.59C294.669 293.59 294.758 290.023 296.625 287.677C298.492 285.332 301.433 285.081 301.433 285.081C301.433 285.081 301.343 288.643 299.476 290.993Z" fill="#6C63FF"/>
<path d="M289.348 297.419C291.114 299.882 291.053 303.45 291.053 303.45C291.053 303.45 288.128 303.021 286.363 300.557C284.598 298.094 284.659 294.526 284.659 294.526C284.659 294.526 287.583 294.955 289.348 297.419Z" fill="#6C63FF"/>
<path d="M290.975 272.516C293.221 274.319 293.949 277.778 293.949 277.778C293.949 277.778 291.037 278.315 288.791 276.512C286.546 274.709 285.818 271.25 285.818 271.25C285.818 271.25 288.742 270.712 290.975 272.516Z" fill="#6C63FF"/>
<path opacity="0.1" d="M290.975 272.516C293.221 274.319 293.949 277.778 293.949 277.778C293.949 277.778 291.037 278.315 288.791 276.512C286.546 274.709 285.818 271.25 285.818 271.25C285.818 271.25 288.742 270.712 290.975 272.516Z" fill="black"/>
<path d="M301.978 271.028C301.978 271.028 294.86 287.953 300.66 297.212C306.46 306.47 300.131 331.703 300.131 331.703" stroke="#6C63FF" stroke-miterlimit="10"/>
<path d="M299.871 265.756C299.871 269.017 301.848 271.668 301.848 271.668C301.848 271.668 303.824 269.022 303.824 265.756C303.824 262.489 301.848 259.843 301.848 259.843C301.848 259.843 299.871 262.494 299.871 265.756Z" fill="#6C63FF"/>
<path opacity="0.1" d="M299.871 265.756C299.871 269.017 301.848 271.668 301.848 271.668C301.848 271.668 303.824 269.022 303.824 265.756C303.824 262.489 301.848 259.843 301.848 259.843C301.848 259.843 299.871 262.494 299.871 265.756Z" fill="black"/>
<path d="M300.44 279.567C298.549 281.893 298.407 285.48 298.407 285.48C298.407 285.48 301.347 285.278 303.239 282.952C305.13 280.626 305.273 277.039 305.273 277.039C305.273 277.039 302.332 277.246 300.44 279.567Z" fill="#6C63FF"/>
<path opacity="0.1" d="M300.44 279.567C298.549 281.893 298.407 285.48 298.407 285.48C298.407 285.48 301.347 285.278 303.239 282.952C305.13 280.626 305.273 277.039 305.273 277.039C305.273 277.039 302.332 277.246 300.44 279.567Z" fill="black"/>
<path d="M304.146 295.734C302.254 298.059 302.112 301.646 302.112 301.646C302.112 301.646 305.053 301.444 306.944 299.119C308.836 296.793 308.978 293.206 308.978 293.206C308.978 293.206 306.025 293.413 304.146 295.734Z" fill="#6C63FF"/>
<path d="M298.704 292.181C298.704 292.181 302.987 284.002 309.002 283.804" stroke="#6C63FF" stroke-miterlimit="10"/>
<path d="M295.356 287.244C295.356 287.244 291.073 279.064 285.057 278.867" stroke="#6C63FF" stroke-miterlimit="10"/>
<path d="M294.799 298.916C294.799 298.916 299.082 290.737 305.098 290.54" stroke="#6C63FF" stroke-miterlimit="10"/>
<path d="M308.795 285.11C309.408 285.11 309.905 284.508 309.905 283.765C309.905 283.022 309.408 282.42 308.795 282.42C308.182 282.42 307.684 283.022 307.684 283.765C307.684 284.508 308.182 285.11 308.795 285.11Z" fill="#6C63FF"/>
<path d="M285.163 280.281C285.776 280.281 286.274 279.679 286.274 278.936C286.274 278.193 285.776 277.591 285.163 277.591C284.55 277.591 284.053 278.193 284.053 278.936C284.053 279.679 284.55 280.281 285.163 280.281Z" fill="#6C63FF"/>
<path d="M297.951 301.612C297.951 301.612 293.668 293.432 287.652 293.235" stroke="#6C63FF" stroke-miterlimit="10"/>
<path d="M287.758 294.65C288.371 294.65 288.868 294.047 288.868 293.304C288.868 292.561 288.371 291.959 287.758 291.959C287.145 291.959 286.648 292.561 286.648 293.304C286.648 294.047 287.145 294.65 287.758 294.65Z" fill="#6C63FF"/>
<path d="M305.183 291.959C305.796 291.959 306.293 291.357 306.293 290.614C306.293 289.871 305.796 289.269 305.183 289.269C304.57 289.269 304.073 289.871 304.073 290.614C304.073 291.357 304.57 291.959 305.183 291.959Z" fill="#6C63FF"/>
<path d="M321.636 321.873C321.636 321.873 311.313 319.37 308.559 316.034C305.805 312.698 293.416 306.864 292.037 311.033C290.658 315.201 273.453 329.377 285.155 331.88C296.857 334.383 312.687 335.216 316.129 333.546C319.57 331.875 321.636 321.873 321.636 321.873Z" fill="#A8A8A8"/>
<path opacity="0.2" d="M285.155 330.328C296.857 332.831 312.687 333.664 316.128 331.994C318.748 330.722 320.57 324.603 321.29 321.784L321.636 321.873C321.636 321.873 319.569 331.88 316.128 333.546C312.687 335.211 296.857 334.379 285.155 331.88C281.779 331.156 280.811 329.461 281.177 327.318C281.462 328.717 282.641 329.791 285.155 330.328Z" fill="black"/>
<path d="M52.5959 298.522C52.5959 298.522 56.0044 303.942 51.0218 312.072C46.0392 320.203 41.9352 327.101 43.5947 332.201C43.5947 332.201 51.1113 317.059 57.2287 316.847C63.3461 316.635 59.3275 307.638 52.5959 298.522Z" fill="#6C63FF"/>
<path opacity="0.1" d="M52.5959 298.522C52.8929 299.045 53.1271 299.615 53.2914 300.217C59.2624 308.712 62.439 316.64 56.704 316.842C51.3594 317.029 44.9491 328.604 43.4116 331.531C43.4624 331.756 43.5235 331.978 43.5947 332.196C43.5947 332.196 51.1113 317.054 57.2287 316.842C63.3461 316.63 59.3274 307.638 52.5959 298.522Z" fill="black"/>
<path d="M58.9329 305.421C58.9329 307.323 58.758 308.87 58.5261 308.87C58.2943 308.87 58.1194 307.328 58.1194 305.421C58.1194 303.514 58.339 304.435 58.5546 304.435C58.7702 304.435 58.9329 303.514 58.9329 305.421Z" fill="#FFD037"/>
<path d="M61.109 307.682C59.7301 308.594 58.5302 309.16 58.4286 308.909C58.3269 308.658 59.3559 307.751 60.7348 306.845C62.1136 305.938 61.5686 306.598 61.6744 306.845C61.7801 307.091 62.4838 306.771 61.109 307.682Z" fill="#FFD037"/>
<path d="M34.5934 298.522C34.5934 298.522 31.1849 303.942 36.1675 312.072C41.1501 320.203 45.2541 327.101 43.5946 332.201C43.5946 332.201 36.078 317.059 29.9606 316.847C23.8432 316.635 27.8618 307.638 34.5934 298.522Z" fill="#6C63FF"/>
<path opacity="0.1" d="M34.5934 298.522C34.2964 299.045 34.0622 299.615 33.8979 300.217C27.9269 308.712 24.7503 316.64 30.4853 316.842C35.8299 317.029 42.2402 328.604 43.7777 331.531C43.7269 331.756 43.6658 331.978 43.5946 332.196C43.5946 332.196 36.078 317.054 29.9606 316.842C23.8432 316.63 27.8618 307.638 34.5934 298.522Z" fill="black"/>
<path d="M28.2563 305.421C28.2563 307.323 28.4312 308.87 28.6631 308.87C28.8949 308.87 29.0698 307.328 29.0698 305.421C29.0698 303.514 28.8502 304.435 28.6346 304.435C28.419 304.435 28.2563 303.514 28.2563 305.421Z" fill="#FFD037"/>
<path d="M26.0803 307.682C27.4591 308.594 28.659 309.16 28.7607 308.909C28.8624 308.658 27.8333 307.751 26.4545 306.845C25.0756 305.938 25.6207 306.598 25.5149 306.845C25.4092 307.091 24.7014 306.771 26.0803 307.682Z" fill="#FFD037"/>
<path d="M29.3424 331.496C29.3424 331.496 38.8724 331.141 41.744 328.663C44.6156 326.184 56.3867 323.243 57.1148 327.185C57.8429 331.126 71.4362 346.948 60.6778 347.052C49.9195 347.155 35.6795 345.022 32.8119 342.908C29.9444 340.794 29.3424 331.496 29.3424 331.496Z" fill="#A8A8A8"/>
<path opacity="0.2" d="M60.869 345.682C50.1107 345.785 35.8706 343.652 33.0031 341.538C30.8189 339.927 29.9485 334.147 29.6597 331.481H29.3424C29.3424 331.481 29.9444 340.794 32.8119 342.908C35.6795 345.021 49.9195 347.16 60.6779 347.052C63.7854 347.022 64.8551 345.682 64.7982 343.701C64.367 344.913 63.1997 345.662 60.869 345.682Z" fill="black"/>
<path d="M282.987 270.634C282.365 268.929 281.242 267.569 280.327 266.066C277.158 260.863 276.569 254.038 276.935 247.633C277.301 241.227 278.505 234.896 278.501 228.475C278.497 222.055 277.069 215.25 273.079 210.914C269.894 207.465 265.493 205.987 262.072 202.873C260.478 201.395 259.132 199.621 257.724 197.911C255.617 195.355 253.366 192.978 250.989 190.796C250.906 190.006 250.603 189.275 250.13 188.722C249.614 188.195 248.91 188.042 248.32 187.633C247.011 186.726 246.551 184.795 246.047 183.095C244.87 179.269 242.984 175.822 240.534 173.018C238.085 170.214 235.136 168.129 231.916 166.923C228.256 165.578 224.188 165.445 220.703 167.298C217.217 169.15 214.695 172.816 213.04 176.857C212.909 177.152 212.787 177.443 212.669 177.744C211.518 180.636 208.866 187.239 209.651 190.505C209.825 191.147 210.111 191.735 210.49 192.229C210.869 192.723 211.333 193.112 211.848 193.368C211.642 194.568 211.539 195.789 211.539 197.014C211.558 200.889 212.593 204.656 214.493 207.772C216.394 210.888 219.062 213.193 222.114 214.354C222.037 217.749 222.374 221.41 223.993 224.021C223.662 226.85 223.172 229.649 222.529 232.398C222.453 232.726 222.382 233.02 222.317 233.28C218.554 237.93 215.965 243.787 214.858 250.161C212.324 256.211 208.533 265.825 207.353 271.841C207.069 273.26 206.601 274.615 205.966 275.857L193.715 273.94L193.199 273.861L193.292 272.447C193.292 272.447 183.604 265.879 181.375 272.831C180.154 273.093 178.961 273.514 177.816 274.088C177.535 274.231 177.254 274.393 176.982 274.58H176.949L176.543 274.837L176.156 275.122L176.111 275.157L175.77 275.438L175.733 275.467C175.614 275.569 175.497 275.676 175.383 275.788L175.334 275.837C175.234 275.936 175.137 276.037 175.042 276.142L174.993 276.197C174.887 276.312 174.784 276.432 174.684 276.556L174.635 276.62C174.548 276.729 174.465 276.84 174.387 276.955L174.33 277.034C174.24 277.166 174.154 277.3 174.07 277.438L174.025 277.512C173.954 277.63 173.886 277.752 173.821 277.877L173.769 277.98C173.695 278.128 173.626 278.276 173.557 278.429L173.52 278.517C173.466 278.649 173.415 278.783 173.366 278.921L173.321 279.045C173.264 279.207 173.215 279.375 173.171 279.537L173.146 279.631C173.108 279.779 173.074 279.93 173.045 280.084L173.016 280.232C172.984 280.414 172.951 280.597 172.927 280.789C172.927 280.818 172.927 280.853 172.927 280.883C172.908 281.05 172.893 281.214 172.882 281.375C172.882 281.429 172.882 281.489 172.882 281.543C172.882 281.745 172.882 281.952 172.882 282.159C172.882 282.188 172.882 282.218 172.882 282.247C172.882 282.435 172.882 282.632 172.882 282.829C172.882 282.893 172.882 282.952 172.882 283.016C172.882 283.243 172.918 283.469 172.947 283.701V283.755C172.975 283.977 173.008 284.204 173.049 284.43L173.081 284.627C173.126 284.879 173.175 285.12 173.236 285.391H173.256H173.293L173.354 285.361H173.378L173.484 285.307H173.508L173.61 285.258L173.667 285.228L173.764 285.179L173.838 285.145L173.964 285.081L174.025 285.051L174.224 284.948L174.305 284.903L174.46 284.824L174.558 284.775L174.728 284.686L174.826 284.637L175.103 284.489L175.147 284.465L175.404 284.322L175.505 284.268L175.737 284.14L175.847 284.08L176.12 283.923L176.193 283.878L176.563 283.662L176.616 283.632L176.949 283.435L177.047 283.376L177.376 283.179L177.458 283.129L178.34 282.587L178.389 282.558L178.796 282.292L178.865 282.247L179.333 281.947L180.358 281.262H180.382L180.895 280.912L181 280.838C181.025 281.009 181.052 281.173 181.082 281.331C179.121 283.726 177.974 287.938 178.666 295.058L178.816 296.606L178.857 297.049L178.991 298.434L179.036 298.926L179.133 299.956L179.178 300.449L179.292 301.686L179.345 302.247L179.434 303.233L179.491 303.859L179.573 304.775L179.622 305.297L179.723 306.421L179.764 306.874L179.845 307.781L179.878 308.131L179.975 309.259L180.008 309.634L180.106 310.762V310.885L180.195 311.959V312.191L180.289 313.324V313.437C180.354 314.232 180.416 314.999 180.476 315.739C180.69 318.403 180.865 320.694 181 322.612L181.057 323.386V323.46L181.098 324.016L181.127 324.42V324.691C181.293 327.121 181.387 328.742 181.432 329.589L180.834 329.619C180.519 329.632 180.219 329.786 179.994 330.052C179.768 330.318 179.632 330.677 179.613 331.058V331.299L179.516 331.402L179.601 331.516C179.601 331.841 179.565 332.196 179.54 332.585L179.333 332.728L179.512 332.994C179.479 333.413 179.443 333.861 179.398 334.329L179.207 334.507L179.349 334.797C179.312 335.152 179.268 335.522 179.223 335.896L179.007 336.034L179.17 336.305C179.146 336.483 179.121 336.662 179.097 336.842L178.898 337L179.032 337.296C178.967 337.724 178.893 338.158 178.812 338.596L178.588 338.769L178.731 339.015C178.655 339.403 178.572 339.792 178.483 340.183L178.251 340.415L178.377 340.641C178.293 340.97 178.203 341.31 178.108 341.661L177.852 341.804L178.003 342.041C177.873 342.484 177.73 342.918 177.596 343.341L177.267 343.721L177.405 343.854C177.328 344.056 177.246 344.253 177.165 344.45C177.083 344.647 177.047 344.711 176.986 344.839L176.815 344.953L176.876 345.086C176.327 345.12 175.79 345.14 175.249 345.14C160.659 345.14 151.544 354.418 151.544 354.418C151.544 354.418 145.593 361.779 148.746 368.574L148.835 368.766L148.917 368.934L149.014 369.121L149.1 369.279L149.283 369.594L149.36 369.717L149.502 369.939L149.6 370.082L149.75 370.294L149.848 370.427L150.096 370.752L150.161 370.831L150.377 371.087L150.483 371.21L150.69 371.437L150.796 371.55L151.117 371.876L151.154 371.91L151.467 372.201L151.585 372.304L151.857 372.536L151.975 372.634L152.382 372.95C153.416 373.744 154.53 374.374 155.697 374.822C156.519 375.141 157.363 375.372 158.219 375.512C160.245 375.837 162.303 375.669 164.275 375.019C165.349 374.664 166.606 374.285 168.013 373.911C176.284 371.676 184.782 370.939 193.231 371.723C211.726 373.58 236.216 367.392 236.216 367.392C236.216 367.392 259.921 364.297 255.491 333.393L255.162 331.772L255.007 331.013C256.003 330.352 256.955 329.598 257.854 328.757L257.334 319.478C257.334 319.478 254.003 300.971 258.766 290.052C259.418 290.345 260.085 290.587 260.763 290.777C266.941 292.506 273.575 289.643 278.387 284.726C280.01 283.1 281.339 281.088 282.292 278.813C283.508 276.187 283.959 273.304 282.987 270.634ZM198.202 283.011L199.044 283.381L198.787 283.548L198.202 283.011ZM192.218 341.464V340.848L192.027 330.082C192.025 329.846 191.954 329.618 191.828 329.439C191.702 329.259 191.528 329.138 191.336 329.096C191.511 327.234 191.873 323.538 192.214 320.922C192.251 320.646 192.283 320.385 192.32 320.139V320.104L192.369 319.774L192.418 319.454V319.414L192.458 319.168V319.104L192.503 318.853C193.024 316.069 193.284 306.485 193.284 306.485C193.284 306.485 204.433 324.825 212.999 332.339C206.22 335.854 199.282 338.901 192.218 341.464V341.464Z" fill="url(#paint0_linear_80_2)"/>
<path d="M223.224 318.941C222.781 327.273 221.26 336.044 216.716 333.871C215.433 333.208 214.225 332.351 213.121 331.319C204.868 323.928 194.126 305.903 194.126 305.903C194.126 305.903 193.874 315.329 193.373 318.064C192.873 320.799 192.117 329.313 192.117 329.313H182.823C182.823 329.313 182.322 318.37 180.061 294.654C177.799 270.939 195.871 280.06 195.871 280.06L212.718 295.788L223.224 305.593C223.224 305.593 223.326 307.461 223.367 310.244C223.407 312.664 223.391 315.768 223.224 318.941Z" fill="#8C8296"/>
<path opacity="0.1" d="M223.224 318.941C222.781 327.273 221.26 336.044 216.716 333.871C215.433 333.208 214.225 332.351 213.121 331.319C204.868 323.928 194.126 305.903 194.126 305.903C194.126 305.903 193.874 315.329 193.373 318.064C193.016 320.035 192.527 324.928 192.279 327.564C192.178 328.618 192.121 329.313 192.121 329.313H182.823C182.823 329.313 182.823 328.885 182.753 328.012C182.554 324.48 181.871 313.674 180.061 294.654C177.803 270.939 195.871 280.06 195.871 280.06L212.718 295.788L223.224 305.593C223.224 305.593 223.326 307.461 223.367 310.244C223.407 312.664 223.391 315.768 223.224 318.941Z" fill="black"/>
<path opacity="0.1" d="M192.271 327.564C192.17 328.618 192.113 329.313 192.113 329.313H182.823C182.823 329.313 182.823 328.885 182.753 328.012L192.023 327.52C192.107 327.518 192.191 327.533 192.271 327.564Z" fill="black"/>
<path d="M193.113 342.376L177.051 346.022C177.686 345.182 178.219 344.236 178.633 343.213C180.48 338.803 180.923 332.733 181.033 330.052C181.045 329.678 181.174 329.324 181.394 329.06C181.614 328.797 181.908 328.644 182.217 328.633L192.027 328.141C192.137 328.134 192.248 328.154 192.351 328.201C192.454 328.247 192.549 328.319 192.629 328.411C192.709 328.503 192.772 328.614 192.816 328.737C192.859 328.86 192.881 328.992 192.881 329.126L193.068 339.71L193.113 342.376Z" fill="#E7C4C3"/>
<path opacity="0.1" d="M193.113 342.376L177.051 346.022C177.686 345.181 178.219 344.236 178.633 343.213C182.953 342.888 188.053 341.484 193.064 339.685L193.113 342.376Z" fill="black"/>
<path d="M235.528 365.795C235.528 365.795 211.937 371.876 194.118 370.052C184.738 369.177 175.303 370.274 166.232 373.295C164.311 373.955 162.297 374.115 160.322 373.763C158.347 373.412 156.456 372.557 154.774 371.255C145.382 363.864 153.96 353.024 153.96 353.024C153.96 353.024 162.746 343.903 176.799 343.903C188.098 343.903 206.381 334.857 213.109 331.319C214.736 330.456 215.7 329.919 215.7 329.919L216.737 314.379L217.205 307.421L223.367 310.249L252.339 323.553L253.779 330.772L254.096 332.368C258.367 362.755 235.528 365.795 235.528 365.795Z" fill="#8C8296"/>
<path opacity="0.1" d="M254.1 332.353L253.783 330.757L252.335 323.533L251.42 323.115L252.518 328.628L252.835 330.225C257.102 360.626 234.263 363.667 234.263 363.667C234.263 363.667 210.672 369.747 192.853 367.924C183.473 367.049 174.038 368.146 164.967 371.166C163.046 371.827 161.032 371.986 159.057 371.635C157.082 371.283 155.191 370.428 153.509 369.126C152.657 368.469 151.876 367.684 151.186 366.79C152.04 368.627 153.272 370.165 154.761 371.255C156.444 372.557 158.335 373.412 160.31 373.763C162.285 374.115 164.299 373.955 166.219 373.295C175.291 370.274 184.725 369.177 194.106 370.052C211.925 371.875 235.516 365.795 235.516 365.795C235.516 365.795 258.367 362.755 254.1 332.353Z" fill="black"/>
<path d="M245.827 229.894H245.734L229.513 232.314L221.732 235.354C221.732 235.354 221.972 234.506 222.297 233.078C223.517 227.82 225.872 214.664 221.732 206.775C216.444 196.743 235.536 206.775 235.536 206.775C235.536 206.775 234.068 217.951 243.008 227.298C243.809 228.133 244.648 228.913 245.522 229.633L245.827 229.894Z" fill="#FFC7D1"/>
<path d="M208.171 276.108L185.332 272.462C185.332 272.462 172.032 272.767 174.794 285.228C178.95 283.128 182.906 280.484 186.589 277.345L202.147 284.337L208.171 276.108Z" fill="#FFC7D1"/>
<path opacity="0.1" d="M208.171 276.108L202.147 284.317L194.098 280.7L186.589 277.335C185.287 278.453 183.998 279.459 182.774 280.345C180.218 282.209 177.55 283.838 174.793 285.219C172.76 275.975 179.532 273.418 183.176 272.718C183.891 272.575 184.612 272.486 185.336 272.452L194.529 273.93L208.171 276.108Z" fill="black"/>
<path d="M226.495 216.216C234.671 216.216 241.3 208.186 241.3 198.281C241.3 188.375 234.671 180.345 226.495 180.345C218.318 180.345 211.689 188.375 211.689 198.281C211.689 208.186 218.318 216.216 226.495 216.216Z" fill="#FFC7D1"/>
<path opacity="0.1" d="M253.779 330.757C248.601 334.62 234.731 341.873 223.733 319.582C223.733 319.582 223.558 319.335 223.224 318.941C221.397 316.811 219.173 315.246 216.741 314.379C215.263 313.866 213.723 313.669 212.189 313.797C212.598 309.887 212.82 305.952 212.857 302.011C212.857 300.04 212.857 297.902 212.726 295.778L223.233 305.583C223.233 305.583 223.334 307.451 223.375 310.235L252.347 323.538L253.779 330.757Z" fill="black"/>
<path opacity="0.1" d="M245.725 229.909L229.504 232.329L221.724 235.369C221.724 235.369 221.963 234.521 222.289 233.092L222.639 232.669C225.144 229.712 228.187 227.278 231.587 226.884C232.651 226.777 233.705 226.563 234.739 226.243C237.505 225.281 240.472 225.664 243.008 227.313C243.932 227.945 244.778 228.732 245.522 229.648C245.587 229.732 245.656 229.821 245.725 229.909Z" fill="black"/>
<path d="M255.857 318.67L256.358 327.791C256.358 327.791 238.054 346.337 224.225 318.365C224.225 318.365 219.706 311.959 212.682 312.59C213.09 308.68 213.312 304.745 213.349 300.804C213.416 296.811 213.193 292.82 212.682 288.875C211.73 282.139 213.088 266.514 214.215 255.955C214.325 254.97 214.427 253.984 214.528 253.078C215.334 245.565 218.19 238.594 222.643 233.275C225.148 230.318 228.191 227.884 231.591 227.49C232.655 227.383 233.709 227.169 234.743 226.849C237.729 225.864 244.611 225.1 248.841 236.28C254.361 250.875 254.865 255.738 254.865 255.738C254.865 255.738 265.204 277.694 258.879 286.751C251.965 296.63 255.857 318.67 255.857 318.67Z" fill="#FFE09C"/>
<path opacity="0.1" d="M194.529 273.925L194.098 280.695L186.589 277.335C185.287 278.453 183.998 279.458 182.774 280.345C182.521 278.338 182.539 276.295 182.827 274.295C182.896 273.762 183.013 273.239 183.176 272.738C183.891 272.594 184.612 272.505 185.336 272.472L194.529 273.925Z" fill="black"/>
<path d="M199.137 298.907L194.256 296.034L190.355 293.738L185.336 288.264C185.336 288.264 181.07 283.4 182.326 274.28C183.583 265.159 194.122 272.457 194.122 272.457L193.357 284.317C193.813 285.147 194.487 285.767 195.269 286.076C196.026 286.425 196.818 286.65 197.624 286.746L199.137 298.907Z" fill="#FFC7D1"/>
<path opacity="0.1" d="M280.27 271.269C279.672 269.594 278.59 268.259 277.708 266.776C274.657 261.661 274.088 254.95 274.454 248.653C274.82 242.356 275.967 236.128 275.963 229.821C275.959 223.514 274.588 216.812 270.74 212.575C267.669 209.175 263.419 207.746 260.136 204.691C258.603 203.257 257.289 201.493 255.947 199.813C253.913 197.302 251.739 194.964 249.439 192.816C249.365 192.045 249.079 191.326 248.626 190.776C248.129 190.284 247.446 190.106 246.881 189.707C245.62 188.815 245.176 186.918 244.688 185.243C243.576 181.506 241.77 178.129 239.41 175.373C237.049 172.616 234.198 170.553 231.075 169.343C227.556 168.017 223.627 167.864 220.271 169.712C216.916 171.56 214.374 175.295 212.783 179.375C211.673 182.218 209.123 188.712 209.875 191.92C210.546 194.777 213.503 195.709 215.976 195.694C216.757 196.62 217.628 197.551 218.311 198.433C219.284 199.596 220.133 200.902 220.837 202.321C222.505 206.026 222.057 210.52 221.898 214.733C221.74 218.946 222.151 223.725 224.868 226.367C225.642 227.046 226.458 227.654 227.308 228.185C233.385 232.447 236.875 240.611 238.929 248.746C240.983 256.881 241.951 265.435 244.656 273.285C247.361 281.134 252.307 288.535 259.14 290.491C265.09 292.191 271.484 289.377 276.117 284.543C279.298 281.208 281.93 275.911 280.27 271.269Z" fill="black"/>
<path d="M280.522 270.663C279.924 268.988 278.842 267.653 277.96 266.169C274.909 261.055 274.34 254.344 274.706 248.047C275.072 241.75 276.219 235.521 276.215 229.214C276.211 222.908 274.84 216.206 270.992 211.969C267.921 208.569 263.671 207.14 260.388 204.085C258.855 202.651 257.541 200.887 256.199 199.207C254.165 196.696 251.991 194.358 249.691 192.21C249.617 191.439 249.331 190.72 248.878 190.17C248.381 189.678 247.698 189.5 247.133 189.101C245.872 188.209 245.428 186.312 244.94 184.637C243.828 180.9 242.022 177.523 239.662 174.766C237.301 172.01 234.45 169.946 231.327 168.736C227.808 167.411 223.879 167.258 220.524 169.106C217.168 170.954 214.626 174.689 213.035 178.768C211.925 181.612 209.375 188.106 210.127 191.313C210.798 194.171 213.755 195.103 216.228 195.088C217.009 196.014 217.88 196.945 218.563 197.827C219.536 198.99 220.385 200.296 221.089 201.715C222.757 205.42 222.309 209.914 222.151 214.127C221.992 218.34 222.403 223.119 225.12 225.76C225.894 226.44 226.71 227.048 227.56 227.579C233.637 231.841 237.127 240.005 239.181 248.14C241.235 256.275 242.203 264.829 244.908 272.678C247.613 280.528 252.559 287.929 259.392 289.885C265.343 291.585 271.737 288.771 276.369 283.937C279.55 280.597 282.182 275.305 280.522 270.663Z" fill="#AD5975"/>
<path opacity="0.1" d="M230.501 276.689C226.063 284.928 219.263 296.28 213.353 300.809C213.42 296.816 213.197 292.824 212.686 288.88C211.734 282.144 213.092 266.519 214.219 255.96C216.334 250.54 218.205 246.317 218.205 246.317C218.205 246.317 226.857 238.123 232.079 251.604C233.6 255.603 234.253 260.005 233.977 264.395C233.701 268.785 232.504 273.016 230.501 276.689V276.689Z" fill="black"/>
<path opacity="0.1" d="M199.137 298.907L194.256 296.034C193.5 292.807 193.374 289.136 195.277 286.076C196.034 286.425 196.826 286.65 197.632 286.746L199.137 298.907Z" fill="black"/>
<path d="M231.083 250.382C232.603 254.373 233.257 258.768 232.984 263.151C232.711 267.533 231.519 271.759 229.521 275.428C224.262 285.199 215.667 299.37 209.184 301.336C199.145 304.376 197.888 303.77 197.888 303.77C197.888 303.77 190.604 291.915 196.611 284.923C196.611 284.923 205.897 280.981 207.654 271.851C209.411 262.72 217.192 245.095 217.192 245.095C217.192 245.095 225.856 236.906 231.083 250.382Z" fill="#FFE09C"/>
<path opacity="0.1" d="M215.574 329.766C215.574 329.766 214.821 332.807 221.093 335.847C227.365 338.887 231.132 348.614 231.132 348.614" fill="black"/>
<g opacity="0.1">
<path opacity="0.1" d="M178.666 343.987L178.548 343.721L180.63 342.336L179.569 340.621L181.383 339.587L180.28 337.635L181.643 336.571L180.691 334.955L182.383 333.827L181.004 331.703L182.635 330.55L182.762 330.811L181.379 331.787L182.766 333.92L181.057 335.058L182.001 336.65L180.634 337.719L181.757 339.71L179.955 340.74L181.004 342.435L178.666 343.987Z" fill="black"/>
<path opacity="0.1" d="M180.293 343.8L178.983 342.509L180.655 340.543L179.955 339.252L181.411 337.788L180.577 335.901L181.651 335.044L180.882 333.452L182.391 332.028L181.183 330.397L181.366 330.195L182.757 332.068L181.208 333.526L181.989 335.137L180.907 336L181.728 337.862L180.289 339.311L180.98 340.582L179.361 342.489L180.451 343.563L180.293 343.8Z" fill="black"/>
</g>
<path d="M178.418 343.987L178.296 343.721L180.378 342.336L179.317 340.622L181.131 339.587L180.028 337.636L181.391 336.571L180.439 334.955L182.135 333.827L180.752 331.703L182.387 330.55L182.514 330.811L181.131 331.787L182.514 333.92L180.805 335.059L181.749 336.65L180.382 337.719L181.505 339.71L179.703 340.74L180.752 342.435L178.418 343.987Z" fill="#8C8296"/>
<path d="M180.041 343.8L178.735 342.509L180.407 340.543L179.703 339.252L181.159 337.788L180.329 335.901L181.403 335.044L180.63 333.452L182.139 332.028L180.931 330.397L181.118 330.195L182.505 332.068L180.96 333.526L181.741 335.137L180.659 336L181.48 337.862L180.036 339.311L180.728 340.582L179.109 342.489L180.199 343.563L180.041 343.8Z" fill="#8C8296"/>
<path opacity="0.1" d="M241.17 193.413C241.654 195.083 242.097 196.98 243.362 197.877C243.928 198.276 244.611 198.429 245.107 198.946C245.56 199.496 245.847 200.214 245.921 200.986C248.22 203.134 250.395 205.471 252.428 207.983C253.783 209.663 255.085 211.432 256.618 212.861C259.913 215.94 264.151 217.364 267.222 220.744C271.065 225.007 272.44 231.703 272.444 237.99C272.448 244.277 271.285 250.525 270.935 256.822C270.585 263.119 271.155 269.831 274.189 274.945C275.072 276.423 276.154 277.764 276.752 279.439C277.103 280.423 277.277 281.486 277.264 282.558C279.875 279.266 281.738 274.674 280.266 270.624C279.668 268.949 278.586 267.613 277.703 266.13C274.653 261.016 274.083 254.304 274.45 248.007C274.816 241.71 275.963 235.482 275.959 229.175C275.954 222.868 274.584 216.167 270.736 211.929C267.665 208.53 263.415 207.101 260.132 204.046C258.599 202.612 257.285 200.848 255.943 199.168C253.909 196.656 251.735 194.319 249.435 192.171C249.361 191.399 249.074 190.681 248.621 190.131C248.125 189.638 247.442 189.461 246.876 189.062C245.616 188.17 245.172 186.273 244.684 184.598C243.572 180.861 241.766 177.484 239.406 174.727C237.045 171.97 234.193 169.907 231.07 168.697C227.552 167.372 239.002 185.938 241.17 193.413Z" fill="black"/>
<path d="M180.716 206.416C180.716 206.416 179.78 198.468 178.113 187.859C178.65 188.352 179.158 188.569 179.609 188.421C182.705 187.391 177.84 172.486 177.84 172.486L172.752 133.412C172.752 133.412 172.504 128.283 172.312 122.257C174.818 122.666 176.994 123.528 177.6 125.189C177.6 125.189 178.161 114.304 178.137 104.174C178.137 95.8859 177.816 87.7705 176.51 86.115C176.075 85.568 175.013 85.0901 173.529 84.6663C173.529 84.4988 173.553 84.3313 173.565 84.1736V84.0406C173.972 77.1078 170.014 70.8501 164.21 69.1748C159.797 67.8986 152.504 64.6663 150.698 56.9895C150.662 56.8368 150.629 56.6791 150.601 56.4968C153.014 55.3826 155.141 53.5122 156.763 51.0767C157.197 50.6234 157.61 50.1471 158.003 49.6478C159.623 50.7403 161.464 51.257 163.316 51.1385C165.167 51.0199 166.953 50.271 168.469 48.9777C168.648 48.8249 168.819 48.6623 168.985 48.4849C167.454 49.6116 165.698 50.2115 163.907 50.2201C162.115 50.2288 160.355 49.646 158.817 48.5342C161.241 45.0014 162.57 40.5537 162.575 35.9596C162.555 32.4931 161.795 29.0917 160.37 26.0856C158.944 23.0795 156.902 20.5707 154.44 18.8027C155.216 17.998 155.876 17.0421 156.393 15.9744C158.963 10.6479 157.328 3.91228 152.732 0.926317C152.537 0.798206 152.325 0.684878 152.142 0.576477C154.137 2.04214 155.577 4.39754 156.152 7.13609C156.728 9.87464 156.394 12.7776 155.221 15.2205C154.959 15.761 154.66 16.2736 154.326 16.7529C155.225 15.0415 155.701 13.0554 155.701 11.0273C155.701 4.92238 151.442 -0.0246582 146.187 -0.0246582C140.932 -0.0246582 136.674 4.90267 136.674 11.0273C136.67 13.2515 137.238 15.4218 138.301 17.2358C134.829 18.9181 131.9 21.9152 129.95 25.7798C130.366 23.3009 131.478 21.0735 133.098 19.4777C132.911 19.6157 132.728 19.7586 132.549 19.9113C131.367 20.9115 130.4 22.2417 129.731 23.7897C129.062 25.3376 128.71 27.0579 128.706 28.8052C127.966 31.0839 127.586 33.5109 127.587 35.9596C127.596 39.0251 128.188 42.0468 129.317 44.7905C130.445 47.5342 132.08 49.9263 134.095 51.7813C134.86 52.8111 135.723 53.7274 136.666 54.5111C136.633 54.6539 136.596 54.7968 136.56 54.9397C135.47 58.9851 132.566 63.6365 125.138 65.0063C112.123 67.4059 110.496 68.4554 109.068 82.0006L109.015 82.5229C108.194 82.622 107.378 82.7866 106.575 83.0157C103.845 83.8681 103.158 92.7718 103.191 101.892C103.146 112.373 104.142 123.632 104.142 123.632C105.427 124.228 106.757 124.672 108.112 124.957L106.575 168.874C106.672 170.637 106.881 172.388 107.201 174.112C104.187 186.593 102.019 197.901 101.434 200.961L101.389 201.193L101.352 201.39L101.303 201.661V201.735H102.544H102.747H102.82H103.069H103.17H103.366H103.475L103.732 201.764H103.789C106.168 202.06 109.564 203.144 110.809 206.835C110.833 206.908 110.87 206.968 110.894 207.037C110.894 207.081 110.939 207.12 110.959 207.165C111.005 207.265 111.055 207.362 111.11 207.455C111.147 207.519 111.187 207.574 111.228 207.633C111.289 207.722 111.354 207.808 111.423 207.889C111.468 207.943 111.517 207.993 111.57 208.042C111.622 208.091 111.72 208.195 111.805 208.259L111.972 208.382C112.062 208.446 112.151 208.51 112.249 208.569L112.436 208.668C112.538 208.722 112.643 208.776 112.749 208.82L112.948 208.899C113.062 208.943 113.18 208.983 113.298 209.022L113.514 209.081L113.9 209.175L114.124 209.214L114.531 209.279H114.762L115.21 209.313H115.45H115.926H116.166H116.597L116.857 210.845L119.22 224.805L122.759 247.426C122.759 247.426 124.528 260.276 122.759 263.105C120.99 265.933 126.521 304.746 126.521 304.746L128.624 322.514L128.677 322.972C128.046 323.61 127.536 324.407 127.184 325.307C127.184 325.307 126.298 331.476 123.202 336.103L123.113 336.241C122.498 337.166 122.176 338.326 122.206 339.513C122.233 340.92 122.718 342.257 123.557 343.231C124.395 344.205 125.518 344.738 126.68 344.711H135.079C135.776 344.716 136.465 344.526 137.092 344.157C137.719 343.788 138.267 343.249 138.695 342.583L141.026 338.887C141.523 338.102 141.78 337.132 141.754 336.143C141.755 335.664 141.689 335.19 141.559 334.738C140.806 332.161 139.663 327.746 139.525 324.391C139.495 323.668 139.251 322.982 138.838 322.459L138.777 321.863C138.179 315.95 137.532 306.096 139.334 302.435C141.205 298.631 140.44 279.414 139.826 268.372C139.509 262.447 139.932 256.499 141.083 250.727C141.376 249.249 141.689 247.795 142.002 246.529C142.876 242.967 141.347 222.533 140.204 209.022L140.07 207.46C142.425 207.781 144.776 208.382 146.647 209.51C146.981 209.701 147.325 209.866 147.676 210.003L147.554 211.481C146.448 224.854 145.166 242.908 145.984 246.234C146.248 247.308 146.509 248.51 146.765 249.752C148.018 255.893 148.479 262.232 148.132 268.544C147.517 279.636 146.789 298.508 148.64 302.272C150.438 305.928 149.803 315.714 149.201 321.651L149.14 322.243C148.724 322.729 148.477 323.39 148.453 324.09C148.355 327.273 147.314 331.452 146.558 334.112C146.413 334.629 146.336 335.169 146.33 335.714C146.287 336.956 146.607 338.177 147.233 339.163L149.287 342.42C149.714 343.087 150.263 343.626 150.89 343.995C151.517 344.364 152.206 344.553 152.903 344.549H161.302C162.464 344.575 163.587 344.043 164.425 343.069C165.264 342.094 165.749 340.757 165.776 339.35C165.806 338.164 165.484 337.003 164.869 336.078L164.78 335.941C161.684 331.314 160.798 325.145 160.798 325.145C160.446 324.244 159.936 323.447 159.305 322.809L159.358 322.351L161.461 304.583C161.461 304.583 166.992 265.765 165.223 262.942C163.454 260.119 165.223 247.263 165.223 247.263L168.762 224.642L171.702 207.268L171.963 205.726C176.181 205.8 180.716 206.416 180.716 206.416ZM118.309 121.207C118.751 120.985 119.203 120.796 119.664 120.641C120.559 125.933 120.611 133.082 117.63 141.247C117.61 136.906 117.638 127.628 118.309 121.207Z" fill="url(#paint1_linear_80_2)"/>
<path d="M141.957 246.628C141.66 247.889 141.359 249.338 141.079 250.811C139.97 256.622 139.568 262.598 139.887 268.549C140.477 279.562 141.205 298.724 139.419 302.513C137.695 306.17 138.313 315.97 138.886 321.888C139.159 324.686 139.419 326.608 139.419 326.608L129.474 325.327L129.157 322.538L127.148 304.8C127.148 304.8 121.86 266.096 123.552 263.277C125.244 260.459 123.552 247.643 123.552 247.643L120.164 225.105L117.903 211.185L115.295 195.117L139.204 197.167C139.204 197.167 139.667 202.282 140.233 209.239C141.331 222.701 142.795 243.08 141.957 246.628Z" fill="#FFBCC8"/>
<path d="M172.426 194.851L170.372 207.519L167.562 224.839L164.178 247.396C164.178 247.396 162.486 260.207 164.178 263.031C165.87 265.854 160.582 304.553 160.582 304.553L158.573 322.292L158.255 325.081L148.311 326.362C148.311 326.362 148.575 324.391 148.847 321.592C149.421 315.679 150.031 305.913 148.311 302.267C146.541 298.512 147.237 279.695 147.822 268.638C148.154 262.353 147.714 256.043 146.517 249.914C146.273 248.677 146.021 247.475 145.768 246.406C144.987 243.09 146.212 225.09 147.269 211.757C147.928 203.445 148.518 196.941 148.518 196.941L172.426 194.851Z" fill="#FFBCC8"/>
<path d="M145.98 22.8727C151.005 22.8727 155.079 17.9378 155.079 11.8503C155.079 5.76273 151.005 0.82782 145.98 0.82782C140.955 0.82782 136.881 5.76273 136.881 11.8503C136.881 17.9378 140.955 22.8727 145.98 22.8727Z" fill="#40243E"/>
<path d="M152.24 1.7788C152.053 1.65068 151.865 1.53736 151.674 1.42896C153.631 2.94257 155.035 5.30502 155.6 8.03238C156.165 10.7597 155.848 13.6456 154.713 16.0988C153.579 18.552 151.713 20.3869 149.498 21.2277C147.283 22.0684 144.886 21.8513 142.799 20.6209C142.974 20.7589 143.153 20.8968 143.34 21.025C144.384 21.787 145.543 22.2872 146.75 22.4959C147.956 22.7047 149.185 22.6177 150.363 22.2402C151.541 21.8627 152.645 21.2023 153.608 20.2983C154.572 19.3942 155.376 18.2649 155.972 16.9774C156.568 15.6898 156.945 14.2703 157.08 12.803C157.214 11.3358 157.104 9.85066 156.756 8.43585C156.408 7.02103 155.829 5.70535 155.053 4.56688C154.277 3.4284 153.321 2.49034 152.24 1.80836V1.7788Z" fill="#40243E"/>
<path d="M167.281 49.6921C167.452 49.5394 167.615 49.3768 167.777 49.1994C165.837 50.7009 163.5 51.2555 161.236 50.7513C158.972 50.247 156.95 48.7215 155.578 46.4823C154.205 44.2432 153.585 41.457 153.842 38.6857C154.099 35.9145 155.214 33.3644 156.962 31.5497C156.783 31.6876 156.608 31.8305 156.437 31.9833C155.477 32.8458 154.667 33.9289 154.053 35.1708C153.439 36.4127 153.032 37.7889 152.857 39.2211C152.682 40.6532 152.741 42.1131 153.031 43.5174C153.322 44.9218 153.838 46.2431 154.55 47.4058C155.262 48.5686 156.156 49.5501 157.181 50.2943C158.206 51.0385 159.342 51.5308 160.525 51.7431C161.707 51.9554 162.912 51.8835 164.071 51.5316C165.23 51.1797 166.321 50.5547 167.281 49.6921V49.6921Z" fill="#40243E"/>
<path d="M143.796 38.4036C143.967 38.2509 144.129 38.0883 144.292 37.9109C142.352 39.4124 140.014 39.967 137.75 39.4627C135.486 38.9585 133.464 37.433 132.092 35.1938C130.72 32.9546 130.1 30.1685 130.357 27.3972C130.614 24.626 131.729 22.0758 133.477 20.2612C133.298 20.3991 133.123 20.542 132.952 20.6948C131.036 22.4471 129.77 25.0454 129.429 27.9237C129.088 30.802 129.699 33.727 131.13 36.0617C132.561 38.3963 134.695 39.9514 137.068 40.3882C139.442 40.825 141.861 40.1081 143.8 38.3938L143.796 38.4036Z" fill="#40243E"/>
<path d="M144.922 56.96C154.153 56.96 161.635 47.8953 161.635 36.7136C161.635 25.5318 154.153 16.4672 144.922 16.4672C135.692 16.4672 128.209 25.5318 128.209 36.7136C128.209 47.8953 135.692 56.96 144.922 56.96Z" fill="#40243E"/>
<path d="M177.926 188.702C174.964 189.727 169.461 173.324 169.461 173.324L158.886 134.363L159.219 120.784L159.943 91.3034L128.417 92.3283C128.417 92.3283 122.495 110.791 120.38 115.911C119.95 117.145 119.661 118.445 119.521 119.774C118.395 128.076 118.708 144.105 118.708 144.105L116.381 171.53C116.381 171.53 116.17 185.115 112.363 182.553C108.556 179.99 108.133 169.249 108.133 169.249L109.568 125.134C109.568 125.134 109.568 124.597 109.52 123.627C109.365 118.246 108.95 99.5617 110.203 85.6863C110.301 84.6088 110.397 83.5938 110.492 82.6412C111.85 69.1403 113.408 68.0859 125.862 65.6961C132.964 64.3312 135.742 59.6897 136.784 55.6542C137.337 53.5149 137.509 51.2577 137.288 49.0319C137.288 49.0319 151.674 35.4472 149.982 51.8503C149.76 53.7889 149.857 55.7616 150.267 57.6547C151.996 65.3068 158.971 68.5342 163.189 69.8055C165.881 70.6088 168.254 72.5351 169.89 75.2464C171.527 77.9577 172.322 81.2806 172.138 84.6318V84.7649C172.04 86.4698 171.778 88.1549 171.357 89.7858C171.357 89.7858 171.568 99.2709 170.95 105.164C170.645 107.992 170.73 114.713 170.901 120.931C171.088 127.687 171.373 133.861 171.373 133.861L176.254 172.821C176.254 172.821 180.891 187.657 177.926 188.702Z" fill="#FFBCC8"/>
<path opacity="0.1" d="M150.283 57.635C148.084 58.7141 145.693 59.0967 143.338 58.7467C140.982 58.3967 138.739 57.3256 136.82 55.6345C137.373 53.4952 137.545 51.238 137.324 49.0122C137.324 49.0122 151.711 35.4275 150.019 51.8306C149.79 53.7676 149.88 55.7402 150.283 57.635V57.635Z" fill="black"/>
<path d="M145.028 58.3691C152.74 58.3691 158.992 50.7958 158.992 41.4536C158.992 32.1114 152.74 24.5381 145.028 24.5381C137.316 24.5381 131.065 32.1114 131.065 41.4536C131.065 50.7958 137.316 58.3691 145.028 58.3691Z" fill="#FFBCC8"/>
<path opacity="0.1" d="M139.419 326.608L129.474 325.327L129.157 322.538C131.162 320.311 134.127 319.69 134.127 319.69C134.941 319.365 136.926 320.484 138.28 321.346C138.505 321.487 138.71 321.672 138.886 321.893C139.159 324.672 139.419 326.608 139.419 326.608Z" fill="black"/>
<path d="M134.131 320.203C134.131 320.203 129.251 321.228 127.782 325.327C127.782 325.327 126.936 331.476 123.975 336.093L123.89 336.231C123.409 337.002 123.116 337.921 123.042 338.883C122.969 339.845 123.119 340.812 123.475 341.677C123.83 342.542 124.378 343.269 125.057 343.777C125.735 344.285 126.517 344.554 127.314 344.553H135.348C136.021 344.553 136.685 344.361 137.286 343.992C137.886 343.623 138.407 343.088 138.805 342.43L141.034 338.744C141.379 338.176 141.605 337.514 141.695 336.817C141.784 336.12 141.733 335.407 141.546 334.738C140.826 332.166 139.732 327.766 139.606 324.391C139.59 323.862 139.459 323.347 139.227 322.898C138.995 322.45 138.67 322.082 138.284 321.834C136.926 320.981 134.933 319.863 134.131 320.203Z" fill="#DFD5E3"/>
<path opacity="0.1" d="M158.569 322.272L158.251 325.061L148.307 326.342C148.307 326.342 148.571 324.371 148.843 321.572C148.993 321.401 149.162 321.255 149.344 321.139C150.694 320.272 152.768 319.089 153.594 319.419C153.594 319.419 156.563 320.045 158.569 322.272Z" fill="black"/>
<path d="M153.594 319.932C153.594 319.932 158.475 320.956 159.943 325.056C159.943 325.056 160.789 331.205 163.75 335.822L163.836 335.96C164.316 336.731 164.61 337.65 164.683 338.612C164.756 339.574 164.607 340.541 164.251 341.406C163.895 342.271 163.347 342.998 162.669 343.506C161.991 344.014 161.209 344.283 160.411 344.282H152.382C151.709 344.282 151.045 344.09 150.444 343.721C149.843 343.352 149.323 342.817 148.925 342.159L146.96 338.926C146.534 338.228 146.253 337.416 146.141 336.558C146.028 335.701 146.088 334.823 146.313 333.999C147.037 331.348 148.034 327.185 148.127 324.007C148.142 323.519 148.262 323.044 148.476 322.63C148.691 322.217 148.991 321.879 149.348 321.651C150.698 320.779 152.772 319.601 153.594 319.932Z" fill="#DFD5E3"/>
<path opacity="0.1" d="M139.208 197.162C139.208 197.162 139.671 202.277 140.237 209.234C135.795 208.579 131.309 209.037 130.32 208.697C129.332 208.357 122.905 210.9 117.907 211.161L115.299 195.093L139.208 197.162Z" fill="black"/>
<path opacity="0.1" d="M172.426 194.851L170.372 207.519C167.602 207.519 165.028 207.761 164.173 208.692C162.168 210.88 152.748 214.221 147.265 211.718C147.924 203.405 148.514 196.901 148.514 196.901L172.426 194.851Z" fill="black"/>
<path d="M117.626 111.55C117.626 111.55 125.456 125.647 117.626 144.356C109.796 163.065 103.028 202.006 103.028 202.006C103.028 202.006 110.223 201.237 112.127 207.13C114.03 213.023 128.84 206.637 130.324 207.13C131.809 207.623 141.115 206.362 146.403 209.692C151.691 213.023 162.058 209.436 164.178 207.13C166.297 204.824 178.987 206.637 178.987 206.637C178.987 206.637 172.207 146.667 162.693 136.413C162.693 136.413 156.999 127.953 164.174 113.856C171.348 99.7587 117.626 111.55 117.626 111.55Z" fill="#FF808E"/>
<path opacity="0.1" d="M171.369 89.7661C171.369 89.7661 171.58 99.2512 170.962 105.144C170.657 107.973 170.742 114.693 170.913 120.912C167.387 120.325 163.185 120.72 162.075 121.025C161.121 121.128 160.159 121.043 159.228 120.774C155.754 119.995 150.495 117.891 148.949 115.644C146.834 112.57 140.062 117.694 138.581 118.975C137.101 120.256 128.213 120.769 125.887 119.468C124.305 118.596 121.941 118.557 119.525 119.744C118.292 120.358 117.153 121.217 116.153 122.286C114.421 124.124 111.744 124.08 109.544 123.597C109.389 118.217 108.974 99.5321 110.227 85.6567C110.325 84.5793 110.421 83.5642 110.516 82.6116C119.42 81.3995 143.462 81.8134 143.462 81.8134C143.462 81.8134 164.239 82.3702 172.17 84.7402C172.066 86.4478 171.798 88.1346 171.369 89.7661Z" fill="black"/>
<path opacity="0.1" d="M145.874 38.7633C152.944 38.7633 158.674 34.7461 158.674 29.7907C158.674 24.8352 152.944 20.818 145.874 20.818C138.805 20.818 133.074 24.8352 133.074 29.7907C133.074 34.7461 138.805 38.7633 145.874 38.7633Z" fill="black"/>
<path d="M145.874 38.2509C152.944 38.2509 158.674 34.2337 158.674 29.2782C158.674 24.3227 152.944 20.3055 145.874 20.3055C138.805 20.3055 133.074 24.3227 133.074 29.2782C133.074 34.2337 138.805 38.2509 145.874 38.2509Z" fill="#40243E"/>
<path opacity="0.1" d="M121.771 68.3618C122.177 68.3618 133.196 68.3618 135.1 67.8691Z" fill="black"/>
<path opacity="0.1" d="M153.7 70.929C159.199 70.929 160.472 70.929 162.376 70.4362Z" fill="black"/>
<path opacity="0.05" d="M136.519 80.2416C136.519 80.2416 142.083 83.7745 142.34 87.3468C142.34 87.3468 144.41 80.6949 147.363 80.3845" fill="black"/>
<path opacity="0.1" d="M141.03 338.094L138.801 341.779C138.403 342.437 137.882 342.973 137.282 343.342C136.681 343.711 136.017 343.903 135.344 343.903H127.31C126.224 343.905 125.177 343.407 124.382 342.51C123.587 341.612 123.103 340.383 123.027 339.069C122.982 339.784 123.059 340.503 123.254 341.18C123.448 341.857 123.756 342.478 124.159 343.004C124.561 343.53 125.048 343.95 125.591 344.237C126.133 344.524 126.719 344.672 127.31 344.672H135.344C136.017 344.672 136.681 344.479 137.282 344.11C137.882 343.741 138.403 343.206 138.801 342.548L141.03 338.862C141.551 338.001 141.795 336.94 141.717 335.876C141.66 336.678 141.422 337.445 141.03 338.094V338.094Z" fill="black"/>
<path opacity="0.1" d="M160.411 343.642H152.382C151.709 343.642 151.045 343.449 150.444 343.08C149.843 342.712 149.323 342.176 148.925 341.518L146.96 338.271C146.457 337.441 146.159 336.455 146.102 335.428C146.022 336.719 146.327 338.002 146.96 339.045L148.925 342.292C149.323 342.95 149.843 343.485 150.444 343.854C151.045 344.223 151.709 344.415 152.382 344.416H160.411C161.003 344.416 161.588 344.267 162.131 343.981C162.673 343.694 163.161 343.274 163.563 342.748C163.965 342.222 164.273 341.601 164.468 340.924C164.662 340.247 164.74 339.528 164.694 338.813C164.618 340.126 164.133 341.354 163.338 342.25C162.543 343.147 161.497 343.644 160.411 343.642Z" fill="black"/>
<g opacity="0.05">
<path opacity="0.05" d="M162.693 136.413C162.693 136.413 156.999 127.953 164.174 113.856C166.085 110.111 163.694 108.194 159.154 107.396C159.939 108.426 159.996 109.786 159.093 111.55C151.898 125.647 157.613 134.107 157.613 134.107C167.135 144.361 173.903 204.336 173.903 204.336C173.903 204.336 161.208 202.543 159.093 204.829C156.978 207.115 146.61 210.742 141.319 207.391C136.027 204.041 126.721 205.342 125.24 204.829C124.248 204.484 117.264 207.253 112.196 207.337C114.372 212.88 128.872 206.628 130.316 207.135C131.76 207.643 141.107 206.366 146.395 209.697C151.682 213.028 162.05 209.441 164.169 207.135C166.289 204.829 178.979 206.642 178.979 206.642C178.979 206.642 172.207 146.667 162.693 136.413Z" fill="black"/>
<path opacity="0.05" d="M103.28 200.616C103.113 201.528 103.028 202.03 103.028 202.03C103.823 201.969 104.62 201.992 105.411 202.099C104.774 201.464 104.054 200.963 103.28 200.616V200.616Z" fill="black"/>
</g>
<path opacity="0.1" d="M143.442 83.6119C143.442 83.6119 113.607 83.1192 108.108 84.893C102.609 86.6669 105.778 124.095 105.778 124.095C105.778 124.095 112.761 127.682 116.145 124.095C119.529 120.508 123.552 119.995 125.879 121.276C128.205 122.558 137.093 122.045 138.573 120.784C140.054 119.522 146.826 114.378 148.941 117.453C151.056 120.527 160.155 123.366 162.058 122.833C163.962 122.301 174.541 121.552 176.022 125.652C176.022 125.652 177.714 91.5646 174.964 87.9726C172.215 84.3806 143.442 83.6119 143.442 83.6119Z" fill="black"/>
<path d="M143.442 82.3308C143.442 82.3308 113.607 81.8381 108.108 83.6119C102.609 85.3857 105.782 122.829 105.782 122.829C105.782 122.829 112.765 126.416 116.149 122.829C119.534 119.241 123.556 118.729 125.883 120.01C128.209 121.291 137.097 120.779 138.577 119.517C140.058 118.256 146.83 113.112 148.945 116.186C151.06 119.261 160.159 122.099 162.063 121.567C163.966 121.035 174.545 120.286 176.026 124.386C176.026 124.386 177.718 90.2983 174.968 86.7063C172.219 83.1142 143.442 82.3308 143.442 82.3308Z" fill="#FF808E"/>
</g>
<defs>
<linearGradient id="paint0_linear_80_2" x1="215.708" y1="375.675" x2="215.708" y2="165.898" gradientUnits="userSpaceOnUse">
<stop stop-color="#808080" stop-opacity="0.25"/>
<stop offset="0.54" stop-color="#808080" stop-opacity="0.12"/>
<stop offset="1" stop-color="#808080" stop-opacity="0.1"/>
</linearGradient>
<linearGradient id="paint1_linear_80_2" x1="141.005" y1="344.839" x2="141.005" y2="-3.44803e-05" gradientUnits="userSpaceOnUse">
<stop stop-color="#808080" stop-opacity="0.25"/>
<stop offset="0.54" stop-color="#808080" stop-opacity="0.12"/>
<stop offset="1" stop-color="#808080" stop-opacity="0.1"/>
</linearGradient>
<clipPath id="clip0_80_2">
<rect width="416" height="397" fill="white"/>
</clipPath>
</defs>
</svg>
