<svg width="26" height="25" viewBox="0 0 26 25" fill="none" xmlns="http://www.w3.org/2000/svg">
<path d="M13 20C18.8348 20 23.5625 15.6359 23.5625 10.25C23.5625 4.86406 18.8348 0.5 13 0.5C7.16523 0.5 2.4375 4.86406 2.4375 10.25C2.4375 15.6359 7.16523 20 13 20ZM11.8727 5.06563V4.27812C11.8727 3.84687 12.2484 3.5 12.7156 3.5H13.2793C13.7465 3.5 14.1223 3.84687 14.1223 4.27812V5.075C14.9094 5.1125 15.6711 5.36094 16.3059 5.79688C16.5902 5.98906 16.6207 6.37344 16.3668 6.59844L15.5391 7.325C15.3461 7.49844 15.0566 7.50313 14.8281 7.37188C14.5539 7.2125 14.2492 7.13281 13.9242 7.13281H11.9488C11.4918 7.13281 11.1211 7.51719 11.1211 7.99063C11.1211 8.375 11.375 8.71719 11.7355 8.81562L14.8992 9.69219C16.2043 10.0531 17.1184 11.2109 17.1184 12.5094C17.1184 14.1031 15.7777 15.3922 14.1172 15.4344V16.2219C14.1172 16.6531 13.7414 17 13.2742 17H12.7105C12.2434 17 11.8676 16.6531 11.8676 16.2219V15.425C11.0805 15.3875 10.3187 15.1391 9.68398 14.7031C9.39961 14.5109 9.36914 14.1266 9.62305 13.9016L10.4508 13.175C10.6438 13.0016 10.9332 12.9969 11.1617 13.1281C11.4359 13.2875 11.7406 13.3672 12.0656 13.3672H14.041C14.498 13.3672 14.8687 12.9828 14.8687 12.5094C14.8687 12.125 14.6148 11.7828 14.2543 11.6844L11.0906 10.8078C9.78555 10.4469 8.87148 9.28906 8.87148 7.99063C8.87656 6.39688 10.2121 5.10781 11.8727 5.06563ZM24.375 17H22.7246C21.7293 18.2188 20.4598 19.2359 19.0176 20H22.2574C22.5266 20 22.7449 20.1688 22.7449 20.375V21.125C22.7449 21.3312 22.5266 21.5 22.2574 21.5H3.7375C3.46836 21.5 3.25 21.3312 3.25 21.125V20.375C3.25 20.1688 3.46836 20 3.7375 20H6.97734C5.53516 19.2359 4.2707 18.2188 3.27031 17H1.625C0.726172 17 0 17.6703 0 18.5V23C0 23.8297 0.726172 24.5 1.625 24.5H24.375C25.2738 24.5 26 23.8297 26 23V18.5C26 17.6703 25.2738 17 24.375 17Z" fill="#3971C6"/>
</svg>
